<svg xml:space="preserve" fill="none" height="24" width="100" viewBox="26 26 908.2 193" y="0px"
    x="0px" xmlns:xlink="http://www.w3.org/1999/xlink" xmlns="http://www.w3.org/2000/svg"
    id="ARTWORK1" version="1.1"><style type="text/css">

    .st0{fill:white;}
    .st1{fill-rule:evenodd;clip-rule:evenodd;fill:white;}
    </style><g><g><path d="M701.9,217.4V27.9h40.2v189.5H701.9z" class="st0"></path><path d="M932.8,120.8c0,31.2-8.9,55.1-26.6,71.7c-17.8,16.6-43.4,24.9-76.9,24.9h-53.7V27.9H835
        c30.9,0,55,8.2,72.1,24.5C924.2,68.7,932.8,91.5,932.8,120.8z M891,121.8c0-40.7-18-61-53.9-61h-21.4v123.4H833
        C871.7,184.2,891,163.4,891,121.8z" class="st0"></path></g><g><g><polygon points="27.5,27.5 27.5,217.5 86.6,217.5 86.6,148.9 129.2,148.9 144.3,107.3 86.6,107.3 86.6,68.9 
          158.3,68.9 173.4,27.5" class="st1"></polygon><rect height="190" width="59.1" class="st1" y="27.5" x="191.5"></rect><polygon points="291.3,27.5 291.3,217.5 350.5,217.5 350.5,148.9 393,148.9 408.2,107.3 350.5,107.3 350.5,68.9 
          422.1,68.9 437.2,27.5" class="st1"></polygon><path d="M606.5,217.5h-59.7l-7.7-25.5h-66.8l-7.4,25.5h-58.2l69.2-190h61.5L606.5,217.5z M529.3,155.5l-23.6-79.1
          l-22.8,79.1H529.3z" class="st1"></path></g><g><path d="M567.3,45.5c-1.2,0-2.4-0.2-3.5-0.7c-1.1-0.5-2-1.1-2.9-1.9c-0.8-0.8-1.5-1.8-1.9-2.9
          c-0.5-1.1-0.7-2.3-0.7-3.5s0.2-2.4,0.7-3.5c0.5-1.1,1.1-2,1.9-2.9c0.8-0.8,1.8-1.5,2.9-1.9c1.1-0.5,2.3-0.7,3.5-0.7
          c1.2,0,2.4,0.2,3.5,0.7c1.1,0.5,2,1.1,2.9,1.9c0.8,0.8,1.5,1.8,1.9,2.9c0.5,1.1,0.7,2.3,0.7,3.5s-0.2,2.4-0.7,3.5
          c-0.5,1.1-1.1,2-1.9,2.9c-0.8,0.8-1.8,1.5-2.9,1.9C569.8,45.3,568.6,45.5,567.3,45.5z M567.3,43.7c0.9,0,1.8-0.2,2.7-0.5
          c0.8-0.4,1.5-0.9,2.2-1.5c0.6-0.6,1.1-1.4,1.5-2.3c0.4-0.9,0.5-1.9,0.5-2.9s-0.2-2-0.5-2.9c-0.4-0.9-0.8-1.7-1.5-2.3
          c-0.6-0.6-1.3-1.2-2.2-1.5c-0.8-0.4-1.7-0.5-2.7-0.5c-0.9,0-1.8,0.2-2.7,0.5c-0.8,0.4-1.5,0.9-2.2,1.5c-0.6,0.6-1.1,1.4-1.5,2.3
          c-0.4,0.9-0.5,1.9-0.5,2.9s0.2,2,0.5,2.9c0.4,0.9,0.8,1.7,1.5,2.3c0.6,0.6,1.3,1.2,2.2,1.5C565.5,43.6,566.4,43.7,567.3,43.7z
           M563.9,31.4h3.8c1.2,0,2.2,0.2,2.8,0.7c0.6,0.5,1,1.2,1,2.3c0,0.9-0.2,1.5-0.7,2c-0.5,0.4-1.1,0.7-2,0.8l2.7,4.5h-1.9l-2.6-4.4
          h-1.1v4.4h-1.9V31.4z M565.8,35.7h1.7c0.3,0,0.5,0,0.8,0c0.2,0,0.5-0.1,0.7-0.2c0.2-0.1,0.3-0.2,0.5-0.4c0.1-0.2,0.2-0.5,0.2-0.8
          c0-0.3-0.1-0.5-0.2-0.7c-0.1-0.2-0.3-0.3-0.5-0.4c-0.2-0.1-0.4-0.2-0.7-0.2c-0.2,0-0.5,0-0.7,0h-1.7V35.7z" class="st0"></path></g></g></g></svg>